<?xml version="1.0" encoding="iso-8859-1"?>
<!-- Generator: Adobe Illustrator 18.1.1, SVG Export Plug-In . SVG Version: 6.00 Build 0)  -->
<svg xmlns="http://www.w3.org/2000/svg" xmlns:xlink="http://www.w3.org/1999/xlink" version="1.1" id="Capa_1" x="0px" y="0px" viewBox="0 0 19.955 19.955" style="enable-background:new 0 0 19.955 19.955;" xml:space="preserve" width="512px" height="512px">
<g>
	<path d="M18.435,9.003c0.229,0.012,1.288,0.024,1.52,0.039l-1.793-6.162H18.13   c0.308-0.134,0.52-0.396,0.52-0.702V1.713c0-0.44-0.437-0.798-0.975-0.798H2.249c-0.538,0-0.974,0.357-0.974,0.798v0.465   c0,0.306,0.211,0.567,0.519,0.702H1.762L0,9.161c0.01-0.002,1.06-0.036,1.487-0.085v8.569H0.738v1.396h18.416v-1.396h-0.718   L18.435,9.003L18.435,9.003z M13.212,3.678l0.332,4.716c-0.84-0.024-1.631-0.04-2.383-0.05L11.06,3.678   c0-0.306,0.212-0.568,0.52-0.702h1.112C13.001,3.11,13.212,3.373,13.212,3.678z M9.149,3.678l-0.1,4.654   C8.183,8.335,7.391,8.347,6.667,8.365l0.33-4.687c0-0.306,0.212-0.568,0.52-0.702h1.114C8.938,3.11,9.149,3.373,9.149,3.678z    M2.979,3.678c0-0.305,0.212-0.568,0.52-0.702h1.113C4.919,3.11,5.131,3.373,5.131,3.678L4.593,8.439   c-1.009,0.049-1.807,0.109-2.41,0.164L2.979,3.678z M11.404,14.002H3.121v-3.84h8.283V14.002z M16.72,16.783h-3.217v-6.621h3.217   V16.783z M15.619,8.466l-0.54-4.788c0-0.306,0.212-0.568,0.519-0.702h1.114c0.306,0.134,0.518,0.397,0.518,0.702l0.793,4.901   C17.188,8.535,16.387,8.498,15.619,8.466z" fill="#68686a"/>
</g>
<g>
</g>
<g>
</g>
<g>
</g>
<g>
</g>
<g>
</g>
<g>
</g>
<g>
</g>
<g>
</g>
<g>
</g>
<g>
</g>
<g>
</g>
<g>
</g>
<g>
</g>
<g>
</g>
<g>
</g>
</svg>
